<?xml version="1.0" encoding="UTF-8" standalone="no"?>
<svg width="" height="" viewBox="0 0 137 137" version="1.1" xmlns="http://www.w3.org/2000/svg" xmlns:xlink="http://www.w3.org/1999/xlink" xmlns:sketch="http://www.bohemiancoding.com/sketch/ns">
    <!-- Generator: Sketch 3.4.4 (17249) - http://www.bohemiancoding.com/sketch -->
    <title>Rectangle + Page 1</title>
    <desc>Created with Sketch.</desc>
    <defs></defs>
    <g id="Page-1" stroke="none" stroke-width="1" fill="none" fill-rule="evenodd" sketch:type="MSPage">
        <g id="Artboard-2" sketch:type="MSArtboardGroup" transform="translate(-836.000000, -407.000000)" fill="#7053FF">
            <g id="Rectangle-+-Page-1" sketch:type="MSLayerGroup" transform="translate(836.000000, 407.000000)">
                <path d="M56.3097034,58.8235294 C59.3584716,58.8235294 61.8401207,61.3051785 61.8401207,64.3539467 C61.8401207,67.4027149 59.3584716,69.884364 56.3097034,69.884364 C53.2609351,69.884364 50.7792861,67.4027149 50.7792861,64.3539467 C50.7792861,61.3051785 53.2609351,58.8235294 56.3097034,58.8235294 L56.3097034,58.8235294 Z M56.3097034,46.0372046 C56.3257919,46.017094 56.3418803,45.9929613 56.361991,45.9728507 C56.3418803,46.0130719 56.329814,46.0573152 56.3097034,46.0975365 L56.3097034,46.0372046 Z M68.3760684,46.7571644 C71.4248366,46.7571644 73.9064857,49.2388135 73.9064857,52.2875817 C73.9064857,55.3363499 71.4248366,57.817999 68.3760684,57.817999 C65.3273002,57.817999 62.8456511,55.3363499 62.8456511,52.2875817 C62.8456511,49.2388135 65.3273002,46.7571644 68.3760684,46.7571644 L68.3760684,46.7571644 Z M80.4424334,58.8235294 C83.4912016,58.8235294 85.9728507,61.3051785 85.9728507,64.3539467 C85.9728507,67.4027149 83.4912016,69.884364 80.4424334,69.884364 C77.3936652,69.884364 74.9120161,67.4027149 74.9120161,64.3539467 C74.9120161,61.3051785 77.3936652,58.8235294 80.4424334,58.8235294 L80.4424334,58.8235294 Z M117.059829,68.3760684 C128.736048,62.3629965 136.752137,50.2081448 136.752137,36.199095 C136.752137,16.2413273 120.514832,0 100.553042,0 L84.4645551,0 C82.2403218,0 80.4424334,1.80191051 80.4424334,4.02212167 C80.4424334,6.24233283 82.2403218,8.04424334 84.4645551,8.04424334 L100.553042,8.04424334 C116.074409,8.04424334 128.707893,20.6737054 128.707893,36.199095 C128.707893,51.7244847 116.074409,64.3539467 100.553042,64.3539467 L96.3459025,64.3539467 C96.1085973,61.5585721 95.60181,58.875817 94.8939165,56.3097034 L100.553042,56.3097034 C111.642031,56.3097034 120.66365,47.2880845 120.66365,36.199095 C120.66365,25.1101056 111.642031,16.0884867 100.553042,16.0884867 C99.668175,16.0884867 98.8919055,16.430367 98.2282554,16.9170437 C98.0553042,17.0377074 97.8461538,17.1060835 97.6973353,17.254902 C97.5042735,17.4600302 97.3916541,17.7214681 97.2388135,17.9627954 C96.8285571,18.5902464 96.5309201,19.3021619 96.5309201,20.1106083 C96.5309201,20.9230769 96.8325792,21.6349925 97.2468577,22.2704877 C97.3956762,22.5037707 97.5042735,22.7652086 97.6973353,22.9663147 C97.9748617,23.2277526 98.31272,23.4087481 98.6505782,23.5897436 C98.775264,23.6581197 98.8677728,23.7626948 99.0005028,23.8190045 C99.4831574,24.0201106 100.010055,24.13273 100.553042,24.13273 C107.205631,24.13273 112.619407,29.5465058 112.619407,36.199095 C112.619407,42.8516843 107.205631,48.26546 100.553042,48.26546 L92.5087984,48.26546 C92.2755153,48.26546 92.0703871,48.361991 91.8451483,48.39819 C90.6666667,46.1136249 89.2830568,44.0261438 87.7425842,42.1437908 C91.7888386,39.6661639 94.5198592,35.2458522 94.5198592,30.1659125 C94.5198592,22.4032177 88.2051282,16.0884867 80.4424334,16.0884867 C78.2182001,16.0884867 76.4203117,17.8903972 76.4203117,20.1106083 C76.4203117,22.3308195 78.2182001,24.13273 80.4424334,24.13273 C83.768728,24.13273 86.4756159,26.8396179 86.4756159,30.1659125 C86.4756159,33.2589241 84.1266968,35.7848165 81.1261941,36.130719 C77.2931121,33.620915 72.9693313,32.1769734 68.3760684,32.1769734 C63.7828054,32.1769734 59.4590246,33.620915 55.6259427,36.130719 C52.6254399,35.7848165 50.2765209,33.2589241 50.2765209,30.1659125 C50.2765209,26.8396179 52.9834087,24.13273 56.3097034,24.13273 C58.5339367,24.13273 60.331825,22.3308195 60.331825,20.1106083 C60.331825,17.8903972 58.5339367,16.0884867 56.3097034,16.0884867 C48.5470085,16.0884867 42.2322775,22.4032177 42.2322775,30.1659125 C42.2322775,35.2458522 44.9632981,39.6661639 49.0135747,42.1437908 C47.4690799,44.0261438 46.0854701,46.1136249 44.9069884,48.39819 C44.6817496,48.361991 44.4766214,48.26546 44.2433384,48.26546 L36.199095,48.26546 C29.5465058,48.26546 24.13273,42.8516843 24.13273,36.199095 C24.13273,29.5465058 29.5465058,24.13273 36.199095,24.13273 C36.7420814,24.13273 37.2649573,24.0201106 37.7476119,23.8190045 C37.9044746,23.7546506 38.0251383,23.6259427 38.1739568,23.5414781 C38.479638,23.3685269 38.7973856,23.207642 39.0548014,22.9663147 C39.2357969,22.7732529 39.340372,22.5238813 39.4851684,22.3026647 C39.9115133,21.6631473 40.2212167,20.9391654 40.2212167,20.1106083 C40.2212167,19.2860734 39.9155354,18.5661136 39.4891905,17.9265963 C39.3443942,17.7013575 39.239819,17.4479638 39.0548014,17.254902 C38.9301156,17.1342383 38.7611865,17.0819507 38.6244344,16.9813977 C37.9406737,16.4544997 37.1282051,16.0884867 36.199095,16.0884867 C25.1101056,16.0884867 16.0884867,25.1101056 16.0884867,36.199095 C16.0884867,47.2880845 25.1101056,56.3097034 36.199095,56.3097034 L41.8582202,56.3097034 C41.1503268,58.875817 40.6435395,61.5585721 40.4062343,64.3539467 L36.199095,64.3539467 C20.6777275,64.3539467 8.04424334,51.7244847 8.04424334,36.199095 C8.04424334,20.6737054 20.6777275,8.04424334 36.199095,8.04424334 L52.2875817,8.04424334 C54.511815,8.04424334 56.3097034,6.24233283 56.3097034,4.02212167 C56.3097034,1.80191051 54.511815,0 52.2875817,0 L36.199095,0 C16.2373052,0 0,16.2413273 0,36.199095 C0,50.2081448 8.01608849,62.3629965 19.6923077,68.3760684 C8.01608849,74.3891403 0,86.543992 0,100.553042 C0,120.510809 16.2373052,136.752137 36.199095,136.752137 L56.3097034,136.752137 C58.5339367,136.752137 60.331825,134.950226 60.331825,132.730015 C60.331825,130.509804 58.5339367,128.707893 56.3097034,128.707893 L36.199095,128.707893 C20.6777275,128.707893 8.04424334,116.078431 8.04424334,100.553042 C8.04424334,85.0276521 20.6777275,72.39819 36.199095,72.39819 L40.4062343,72.39819 C40.6435395,75.1935646 41.1503268,77.8763198 41.8582202,80.4424334 L36.199095,80.4424334 C25.1101056,80.4424334 16.0884867,89.4640523 16.0884867,100.553042 C16.0884867,111.642031 25.1101056,120.66365 36.199095,120.66365 L48.26546,120.66365 C50.4896933,120.66365 52.2875817,118.86174 52.2875817,116.641528 C52.2875817,114.421317 50.4896933,112.619407 48.26546,112.619407 L36.199095,112.619407 C29.5465058,112.619407 24.13273,107.205631 24.13273,100.553042 C24.13273,93.9004525 29.5465058,88.4866767 36.199095,88.4866767 L44.2433384,88.4866767 C44.4766214,88.4866767 44.6817496,88.3901458 44.9069884,88.3539467 C49.9467069,98.1236802 58.5741579,104.575163 68.3760684,104.575163 C78.1779789,104.575163 86.8054299,98.1236802 91.8451483,88.3539467 C92.0703871,88.3901458 92.2755153,88.4866767 92.5087984,88.4866767 L100.553042,88.4866767 C107.205631,88.4866767 112.619407,93.9004525 112.619407,100.553042 C112.619407,107.205631 107.205631,112.619407 100.553042,112.619407 L88.4866767,112.619407 C86.2624434,112.619407 84.4645551,114.421317 84.4645551,116.641528 C84.4645551,118.86174 86.2624434,120.66365 88.4866767,120.66365 L100.553042,120.66365 C111.642031,120.66365 120.66365,111.642031 120.66365,100.553042 C120.66365,89.4640523 111.642031,80.4424334 100.553042,80.4424334 L94.8939165,80.4424334 C95.60181,77.8763198 96.1085973,75.1935646 96.3459025,72.39819 L100.553042,72.39819 C116.074409,72.39819 128.707893,85.0276521 128.707893,100.553042 C128.707893,116.078431 116.074409,128.707893 100.553042,128.707893 L80.4424334,128.707893 C78.2182001,128.707893 76.4203117,130.509804 76.4203117,132.730015 C76.4203117,134.950226 78.2182001,136.752137 80.4424334,136.752137 L100.553042,136.752137 C120.514832,136.752137 136.752137,120.510809 136.752137,100.553042 C136.752137,86.543992 128.736048,74.3891403 117.059829,68.3760684 L117.059829,68.3760684 Z" id="Page-1" sketch:type="MSShapeGroup"></path>
            </g>
        </g>
    </g>
</svg>